# xmcd
#
# Track frame offsets:
#	150
#	18610
#	35610
#	52039
#	70149
#	76013
#	95224
#	111445
#	129684
#	141263
#	159295
#	175322
#	190206
#
# Disc length: 2750 seconds
# Revision: 1
# Processed by: cddbd v1.5.2PL0 Copyright (c) Steve Scherf et al.
# Submitted via: dBpowerAMP V12.0
#
DISCID=b90abc0d
DTITLE=Kacey Musgraves - Golden Hour
DYEAR=2018
DGENRE=Country
TTITLE0=Slow Burn
TTITLE1=Lonely Weekend
TTITLE2=Butterflies
TTITLE3=Oh, What A World
TTITLE4=Mother
TTITLE5=Love Is A Wild Thing
TTITLE6=Space Cowboy
TTITLE7=Happy and Sad
TTITLE8=Velvet Elvis
TTITLE9=Wonder Woman
TTITLE10=High Horse
TTITLE11=Golden Hour
TTITLE12=Rainbow
EXTD=
EXTT0=
EXTT1=
EXTT2=
EXTT3=
EXTT4=
EXTT5=
EXTT6=
EXTT7=
EXTT8=
EXTT9=
EXTT10=
EXTT11=
EXTT12=
PLAYORDER=
